<svg width="1440" height="900" viewBox="0 0 1440 900" fill="none" xmlns="http://www.w3.org/2000/svg">
<g clip-path="url(#clip0_3284_7410)">
<g style="mix-blend-mode:plus-lighter" opacity="0.7">
<mask id="mask0_3284_7410" style="mask-type:alpha" maskUnits="userSpaceOnUse" x="723" y="228" width="547" height="567">
<path d="M1136.13 282.159C1109.36 231.284 1045.35 213.371 996.119 242.978L772.338 377.562C726.934 404.87 710.738 462.889 735.42 509.82L857.086 741.152C883.84 792.023 947.826 809.96 997.061 780.39L1088.48 725.484L1220.99 645.793C1266.4 618.48 1282.59 560.444 1257.89 513.511L1136.13 282.159Z" fill="url(#paint0_linear_3284_7410)"/>
</mask>
<g mask="url(#mask0_3284_7410)">
<ellipse cx="215.529" cy="252.728" rx="215.529" ry="252.728" transform="matrix(0.269048 -0.963127 -0.963127 -0.269048 936.103 995.479)" fill="#F6EBDB"/>
<ellipse cx="254.704" cy="327.829" rx="254.704" ry="327.829" transform="matrix(-0.183931 0.982939 0.997765 0.0668174 579.855 140.955)" fill="#41A7FF" fill-opacity="0.7"/>
<ellipse cx="171.246" cy="224.661" rx="171.246" ry="224.661" transform="matrix(-0.183931 0.982939 0.997765 0.0668174 937.251 463.713)" fill="#A9F5C4"/>
<ellipse opacity="0.6" cx="365.73" cy="237.541" rx="365.73" ry="237.541" transform="matrix(-0.183931 0.982939 0.997765 0.0668174 1084.06 -87.0386)" fill="#C8EAFF"/>
<ellipse cx="96.0778" cy="192.391" rx="96.0778" ry="192.391" transform="matrix(-0.368729 0.929537 0.868529 0.495638 761.673 368.26)" fill="#DBFF00"/>
</g>
</g>
<g filter="url(#filter0_b_3284_7410)">
<path d="M0 900H1440V0H0V900Z" fill="white" style="mix-blend-mode:multiply"/>
</g>
<g style="mix-blend-mode:hard-light" opacity="0.5">
<rect x="0.5" y="-0.5" width="63.016" height="62.6959" transform="matrix(1 0 0 -1 217 899.1)" stroke="white" stroke-opacity="0.05"/>
<rect x="0.5" y="-0.5" width="63.016" height="62.6959" transform="matrix(1 0 0 -1 217 399.151)" stroke="white" stroke-opacity="0.05"/>
<rect x="0.5" y="-0.5" width="63.016" height="62.6959" transform="matrix(1 0 0 -1 217 649.124)" stroke="white" stroke-opacity="0.05"/>
<rect x="0.5" y="-0.5" width="63.016" height="62.6959" transform="matrix(1 0 0 -1 217 149.176)" stroke="white" stroke-opacity="0.05"/>
<rect x="0.5" y="-0.5" width="63.016" height="62.6959" transform="matrix(1 0 0 -1 468.231 899.1)" stroke="white" stroke-opacity="0.05"/>
<rect x="0.5" y="-0.5" width="63.016" height="62.6959" transform="matrix(1 0 0 -1 468.231 399.151)" stroke="white" stroke-opacity="0.05"/>
<rect x="0.5" y="-0.5" width="63.016" height="62.6959" transform="matrix(1 0 0 -1 468.231 649.124)" stroke="white" stroke-opacity="0.05"/>
<rect x="0.5" y="-0.5" width="63.016" height="62.6959" transform="matrix(1 0 0 -1 468.231 149.176)" stroke="white" stroke-opacity="0.05"/>
<rect x="0.5" y="-0.5" width="63.016" height="62.6959" transform="matrix(1 0 0 -1 217 774.112)" stroke="white" stroke-opacity="0.05"/>
<rect x="0.5" y="-0.5" width="63.016" height="62.6959" transform="matrix(1 0 0 -1 217 274.163)" stroke="white" stroke-opacity="0.05"/>
<rect x="0.5" y="-0.5" width="63.016" height="62.6959" transform="matrix(1 0 0 -1 217 524.138)" stroke="white" stroke-opacity="0.05"/>
<rect x="0.5" y="-0.5" width="63.016" height="62.6959" transform="matrix(1 0 0 -1 217 24.1895)" stroke="white" stroke-opacity="0.05"/>
<rect x="0.5" y="-0.5" width="63.016" height="62.6959" transform="matrix(1 0 0 -1 468.231 774.112)" stroke="white" stroke-opacity="0.05"/>
<rect x="0.5" y="-0.5" width="63.016" height="62.6959" transform="matrix(1 0 0 -1 468.231 274.163)" stroke="white" stroke-opacity="0.05"/>
<rect x="0.5" y="-0.5" width="63.016" height="62.6959" transform="matrix(1 0 0 -1 468.231 524.138)" stroke="white" stroke-opacity="0.05"/>
<rect x="0.5" y="-0.5" width="63.016" height="62.6959" transform="matrix(1 0 0 -1 468.231 24.1895)" stroke="white" stroke-opacity="0.05"/>
<rect x="0.5" y="-0.5" width="63.016" height="62.6959" transform="matrix(1 0 0 -1 342.616 899.1)" stroke="white" stroke-opacity="0.05"/>
<rect x="0.5" y="-0.5" width="63.016" height="62.6959" transform="matrix(1 0 0 -1 342.616 399.151)" stroke="white" stroke-opacity="0.05"/>
<rect x="0.5" y="-0.5" width="63.016" height="62.6959" transform="matrix(1 0 0 -1 342.616 649.124)" stroke="white" stroke-opacity="0.05"/>
<rect x="0.5" y="-0.5" width="63.016" height="62.6959" transform="matrix(1 0 0 -1 342.616 149.176)" stroke="white" stroke-opacity="0.05"/>
<rect x="0.5" y="-0.5" width="63.016" height="62.6959" transform="matrix(1 0 0 -1 593.846 899.1)" stroke="white" stroke-opacity="0.05"/>
<rect x="0.5" y="-0.5" width="63.016" height="62.6959" transform="matrix(1 0 0 -1 593.846 399.151)" stroke="white" stroke-opacity="0.05"/>
<rect x="0.5" y="-0.5" width="63.016" height="62.6959" transform="matrix(1 0 0 -1 593.846 649.124)" stroke="white" stroke-opacity="0.05"/>
<rect x="0.5" y="-0.5" width="63.016" height="62.6959" transform="matrix(1 0 0 -1 593.846 149.176)" stroke="white" stroke-opacity="0.05"/>
<rect x="0.5" y="-0.5" width="63.016" height="62.6959" transform="matrix(1 0 0 -1 342.616 774.112)" stroke="white" stroke-opacity="0.05"/>
<rect x="0.5" y="-0.5" width="63.016" height="62.6959" transform="matrix(1 0 0 -1 342.616 274.163)" stroke="white" stroke-opacity="0.05"/>
<rect x="0.5" y="-0.5" width="63.016" height="62.6959" transform="matrix(1 0 0 -1 342.616 524.138)" stroke="white" stroke-opacity="0.05"/>
<rect x="0.5" y="-0.5" width="63.016" height="62.6959" transform="matrix(1 0 0 -1 342.616 24.1895)" stroke="white" stroke-opacity="0.05"/>
<rect x="0.5" y="-0.5" width="63.016" height="62.6959" transform="matrix(1 0 0 -1 593.846 774.112)" stroke="white" stroke-opacity="0.05"/>
<rect x="0.5" y="-0.5" width="63.016" height="62.6959" transform="matrix(1 0 0 -1 593.846 274.163)" stroke="white" stroke-opacity="0.05"/>
<rect x="0.5" y="-0.5" width="63.016" height="62.6959" transform="matrix(1 0 0 -1 593.846 524.138)" stroke="white" stroke-opacity="0.05"/>
<rect x="0.5" y="-0.5" width="63.016" height="62.6959" transform="matrix(1 0 0 -1 593.846 24.1895)" stroke="white" stroke-opacity="0.05"/>
<rect x="0.5" y="-0.5" width="63.016" height="62.6959" transform="matrix(1 0 0 -1 217 836.606)" stroke="white" stroke-opacity="0.05"/>
<rect x="0.5" y="-0.5" width="63.016" height="62.6959" transform="matrix(1 0 0 -1 217 336.657)" stroke="white" stroke-opacity="0.05"/>
<rect x="0.5" y="-0.5" width="63.016" height="62.6959" transform="matrix(1 0 0 -1 217 586.632)" stroke="white" stroke-opacity="0.05"/>
<rect x="0.5" y="-0.5" width="63.016" height="62.6959" transform="matrix(1 0 0 -1 217 86.6831)" stroke="white" stroke-opacity="0.05"/>
<rect x="0.5" y="-0.5" width="63.016" height="62.6959" transform="matrix(1 0 0 -1 468.231 836.606)" stroke="white" stroke-opacity="0.05"/>
<rect x="0.5" y="-0.5" width="63.016" height="62.6959" transform="matrix(1 0 0 -1 468.231 336.657)" stroke="white" stroke-opacity="0.05"/>
<rect x="0.5" y="-0.5" width="63.016" height="62.6959" transform="matrix(1 0 0 -1 468.231 586.632)" stroke="white" stroke-opacity="0.05"/>
<rect x="0.5" y="-0.5" width="63.016" height="62.6959" transform="matrix(1 0 0 -1 468.231 86.6831)" stroke="white" stroke-opacity="0.05"/>
<rect x="0.5" y="-0.5" width="63.016" height="62.6959" transform="matrix(1 0 0 -1 217 711.619)" stroke="white" stroke-opacity="0.05"/>
<rect x="0.5" y="-0.5" width="63.016" height="62.6959" transform="matrix(1 0 0 -1 217 211.669)" stroke="white" stroke-opacity="0.05"/>
<rect x="0.5" y="-0.5" width="63.016" height="62.6959" transform="matrix(1 0 0 -1 217 461.646)" stroke="white" stroke-opacity="0.05"/>
<rect x="0.5" y="-0.5" width="63.016" height="62.6959" transform="matrix(1 0 0 -1 468.231 711.619)" stroke="white" stroke-opacity="0.05"/>
<rect x="0.5" y="-0.5" width="63.016" height="62.6959" transform="matrix(1 0 0 -1 468.231 211.669)" stroke="white" stroke-opacity="0.05"/>
<rect x="0.5" y="-0.5" width="63.016" height="62.6959" transform="matrix(1 0 0 -1 468.231 461.646)" stroke="white" stroke-opacity="0.05"/>
<rect x="0.5" y="-0.5" width="63.016" height="62.6959" transform="matrix(1 0 0 -1 342.616 836.606)" stroke="white" stroke-opacity="0.05"/>
<rect x="0.5" y="-0.5" width="63.016" height="62.6959" transform="matrix(1 0 0 -1 342.616 336.657)" stroke="white" stroke-opacity="0.05"/>
<rect x="0.5" y="-0.5" width="63.016" height="62.6959" transform="matrix(1 0 0 -1 342.616 586.632)" stroke="white" stroke-opacity="0.05"/>
<rect x="0.5" y="-0.5" width="63.016" height="62.6959" transform="matrix(1 0 0 -1 342.616 86.6831)" stroke="white" stroke-opacity="0.05"/>
<rect x="0.5" y="-0.5" width="63.016" height="62.6959" transform="matrix(1 0 0 -1 593.846 836.606)" stroke="white" stroke-opacity="0.05"/>
<rect x="0.5" y="-0.5" width="63.016" height="62.6959" transform="matrix(1 0 0 -1 593.846 336.657)" stroke="white" stroke-opacity="0.05"/>
<rect x="0.5" y="-0.5" width="63.016" height="62.6959" transform="matrix(1 0 0 -1 593.846 586.632)" stroke="white" stroke-opacity="0.05"/>
<rect x="0.5" y="-0.5" width="63.016" height="62.6959" transform="matrix(1 0 0 -1 593.846 86.6831)" stroke="white" stroke-opacity="0.05"/>
<rect x="0.5" y="-0.5" width="63.016" height="62.6959" transform="matrix(1 0 0 -1 342.616 711.619)" stroke="white" stroke-opacity="0.05"/>
<rect x="0.5" y="-0.5" width="63.016" height="62.6959" transform="matrix(1 0 0 -1 342.616 211.669)" stroke="white" stroke-opacity="0.05"/>
<rect x="0.5" y="-0.5" width="63.016" height="62.6959" transform="matrix(1 0 0 -1 342.616 461.646)" stroke="white" stroke-opacity="0.05"/>
<rect x="0.5" y="-0.5" width="63.016" height="62.6959" transform="matrix(1 0 0 -1 593.846 711.619)" stroke="white" stroke-opacity="0.05"/>
<rect x="0.5" y="-0.5" width="63.016" height="62.6959" transform="matrix(1 0 0 -1 593.846 211.669)" stroke="white" stroke-opacity="0.05"/>
<rect x="0.5" y="-0.5" width="63.016" height="62.6959" transform="matrix(1 0 0 -1 593.846 461.646)" stroke="white" stroke-opacity="0.05"/>
<rect x="0.5" y="-0.5" width="63.016" height="62.6959" transform="matrix(1 0 0 -1 279.807 899.1)" stroke="white" stroke-opacity="0.05"/>
<rect x="0.5" y="-0.5" width="63.016" height="62.6959" transform="matrix(1 0 0 -1 279.807 399.151)" stroke="white" stroke-opacity="0.05"/>
<rect x="0.5" y="-0.5" width="63.016" height="62.6959" transform="matrix(1 0 0 -1 279.807 649.124)" stroke="white" stroke-opacity="0.05"/>
<rect x="0.5" y="-0.5" width="63.016" height="62.6959" transform="matrix(1 0 0 -1 279.807 149.176)" stroke="white" stroke-opacity="0.05"/>
<rect x="0.5" y="-0.5" width="63.016" height="62.6959" transform="matrix(1 0 0 -1 531.039 899.1)" stroke="white" stroke-opacity="0.05"/>
<rect x="0.5" y="-0.5" width="63.016" height="62.6959" transform="matrix(1 0 0 -1 531.039 399.151)" stroke="white" stroke-opacity="0.05"/>
<rect x="0.5" y="-0.5" width="63.016" height="62.6959" transform="matrix(1 0 0 -1 531.039 649.124)" stroke="white" stroke-opacity="0.05"/>
<rect x="0.5" y="-0.5" width="63.016" height="62.6959" transform="matrix(1 0 0 -1 531.039 149.176)" stroke="white" stroke-opacity="0.05"/>
<rect x="0.5" y="-0.5" width="63.016" height="62.6959" transform="matrix(1 0 0 -1 279.807 774.112)" stroke="white" stroke-opacity="0.05"/>
<rect x="0.5" y="-0.5" width="63.016" height="62.6959" transform="matrix(1 0 0 -1 279.807 274.163)" stroke="white" stroke-opacity="0.05"/>
<rect x="0.5" y="-0.5" width="63.016" height="62.6959" transform="matrix(1 0 0 -1 279.807 524.138)" stroke="white" stroke-opacity="0.05"/>
<rect x="0.5" y="-0.5" width="63.016" height="62.6959" transform="matrix(1 0 0 -1 279.807 24.1895)" stroke="white" stroke-opacity="0.05"/>
<rect x="0.5" y="-0.5" width="63.016" height="62.6959" transform="matrix(1 0 0 -1 531.039 774.112)" stroke="white" stroke-opacity="0.05"/>
<rect x="0.5" y="-0.5" width="63.016" height="62.6959" transform="matrix(1 0 0 -1 531.039 274.163)" stroke="white" stroke-opacity="0.05"/>
<rect x="0.5" y="-0.5" width="63.016" height="62.6959" transform="matrix(1 0 0 -1 531.039 524.138)" stroke="white" stroke-opacity="0.05"/>
<rect x="0.5" y="-0.5" width="63.016" height="62.6959" transform="matrix(1 0 0 -1 531.039 24.1895)" stroke="white" stroke-opacity="0.05"/>
<rect x="0.5" y="-0.5" width="63.016" height="62.6959" transform="matrix(1 0 0 -1 405.424 899.1)" stroke="white" stroke-opacity="0.05"/>
<rect x="0.5" y="-0.5" width="63.016" height="62.6959" transform="matrix(1 0 0 -1 405.424 399.151)" stroke="white" stroke-opacity="0.05"/>
<rect x="0.5" y="-0.5" width="63.016" height="62.6959" transform="matrix(1 0 0 -1 405.424 649.124)" stroke="white" stroke-opacity="0.05"/>
<rect x="0.5" y="-0.5" width="63.016" height="62.6959" transform="matrix(1 0 0 -1 405.424 149.176)" stroke="white" stroke-opacity="0.05"/>
<rect x="0.5" y="-0.5" width="63.016" height="62.6959" transform="matrix(1 0 0 -1 656.654 899.1)" stroke="white" stroke-opacity="0.05"/>
<rect x="0.5" y="-0.5" width="63.016" height="62.6959" transform="matrix(1 0 0 -1 656.654 399.151)" stroke="white" stroke-opacity="0.05"/>
<rect x="0.5" y="-0.5" width="63.016" height="62.6959" transform="matrix(1 0 0 -1 656.654 649.124)" stroke="white" stroke-opacity="0.05"/>
<rect x="0.5" y="-0.5" width="63.016" height="62.6959" transform="matrix(1 0 0 -1 656.654 149.176)" stroke="white" stroke-opacity="0.05"/>
<rect x="0.5" y="-0.5" width="63.016" height="62.6959" transform="matrix(1 0 0 -1 405.424 774.112)" stroke="white" stroke-opacity="0.05"/>
<rect x="0.5" y="-0.5" width="63.016" height="62.6959" transform="matrix(1 0 0 -1 405.424 274.163)" stroke="white" stroke-opacity="0.05"/>
<rect x="0.5" y="-0.5" width="63.016" height="62.6959" transform="matrix(1 0 0 -1 405.424 524.138)" stroke="white" stroke-opacity="0.05"/>
<rect x="0.5" y="-0.5" width="63.016" height="62.6959" transform="matrix(1 0 0 -1 405.424 24.1895)" stroke="white" stroke-opacity="0.05"/>
<rect x="0.5" y="-0.5" width="63.016" height="62.6959" transform="matrix(1 0 0 -1 656.654 774.112)" stroke="white" stroke-opacity="0.05"/>
<rect x="0.5" y="-0.5" width="63.016" height="62.6959" transform="matrix(1 0 0 -1 656.654 274.163)" stroke="white" stroke-opacity="0.05"/>
<rect x="0.5" y="-0.5" width="63.016" height="62.6959" transform="matrix(1 0 0 -1 656.654 524.138)" stroke="white" stroke-opacity="0.05"/>
<rect x="0.5" y="-0.5" width="63.016" height="62.6959" transform="matrix(1 0 0 -1 656.654 24.1895)" stroke="white" stroke-opacity="0.05"/>
<rect x="0.5" y="-0.5" width="63.016" height="62.6959" transform="matrix(1 0 0 -1 279.807 836.606)" stroke="white" stroke-opacity="0.05"/>
<rect x="0.5" y="-0.5" width="63.016" height="62.6959" transform="matrix(1 0 0 -1 279.807 336.657)" stroke="white" stroke-opacity="0.05"/>
<rect x="0.5" y="-0.5" width="63.016" height="62.6959" transform="matrix(1 0 0 -1 279.807 586.632)" stroke="white" stroke-opacity="0.05"/>
<rect x="0.5" y="-0.5" width="63.016" height="62.6959" transform="matrix(1 0 0 -1 279.807 86.6831)" stroke="white" stroke-opacity="0.05"/>
<rect x="0.5" y="-0.5" width="63.016" height="62.6959" transform="matrix(1 0 0 -1 531.039 836.606)" stroke="white" stroke-opacity="0.05"/>
<rect x="0.5" y="-0.5" width="63.016" height="62.6959" transform="matrix(1 0 0 -1 531.039 336.657)" stroke="white" stroke-opacity="0.05"/>
<rect x="0.5" y="-0.5" width="63.016" height="62.6959" transform="matrix(1 0 0 -1 531.039 586.632)" stroke="white" stroke-opacity="0.05"/>
<rect x="0.5" y="-0.5" width="63.016" height="62.6959" transform="matrix(1 0 0 -1 531.039 86.6831)" stroke="white" stroke-opacity="0.05"/>
<rect x="0.5" y="-0.5" width="63.016" height="62.6959" transform="matrix(1 0 0 -1 279.807 711.619)" stroke="white" stroke-opacity="0.05"/>
<rect x="0.5" y="-0.5" width="63.016" height="62.6959" transform="matrix(1 0 0 -1 279.807 211.669)" stroke="white" stroke-opacity="0.05"/>
<rect x="0.5" y="-0.5" width="63.016" height="62.6959" transform="matrix(1 0 0 -1 279.807 461.646)" stroke="white" stroke-opacity="0.05"/>
<rect x="0.5" y="-0.5" width="63.016" height="62.6959" transform="matrix(1 0 0 -1 531.039 711.619)" stroke="white" stroke-opacity="0.05"/>
<rect x="0.5" y="-0.5" width="63.016" height="62.6959" transform="matrix(1 0 0 -1 531.039 211.669)" stroke="white" stroke-opacity="0.05"/>
<rect x="0.5" y="-0.5" width="63.016" height="62.6959" transform="matrix(1 0 0 -1 531.039 461.646)" stroke="white" stroke-opacity="0.05"/>
<rect x="0.5" y="-0.5" width="63.016" height="62.6959" transform="matrix(1 0 0 -1 405.424 836.606)" stroke="white" stroke-opacity="0.05"/>
<rect x="0.5" y="-0.5" width="63.016" height="62.6959" transform="matrix(1 0 0 -1 405.424 336.657)" stroke="white" stroke-opacity="0.05"/>
<rect x="0.5" y="-0.5" width="63.016" height="62.6959" transform="matrix(1 0 0 -1 405.424 586.632)" stroke="white" stroke-opacity="0.05"/>
<rect x="0.5" y="-0.5" width="63.016" height="62.6959" transform="matrix(1 0 0 -1 405.424 86.6831)" stroke="white" stroke-opacity="0.05"/>
<rect x="0.5" y="-0.5" width="63.016" height="62.6959" transform="matrix(1 0 0 -1 656.654 836.606)" stroke="white" stroke-opacity="0.05"/>
<rect x="0.5" y="-0.5" width="63.016" height="62.6959" transform="matrix(1 0 0 -1 656.654 336.657)" stroke="white" stroke-opacity="0.05"/>
<rect x="0.5" y="-0.5" width="63.016" height="62.6959" transform="matrix(1 0 0 -1 656.654 586.632)" stroke="white" stroke-opacity="0.05"/>
<rect x="0.5" y="-0.5" width="63.016" height="62.6959" transform="matrix(1 0 0 -1 656.654 86.6831)" stroke="white" stroke-opacity="0.05"/>
<rect x="0.5" y="-0.5" width="63.016" height="62.6959" transform="matrix(1 0 0 -1 405.424 711.619)" stroke="white" stroke-opacity="0.05"/>
<rect x="0.5" y="-0.5" width="63.016" height="62.6959" transform="matrix(1 0 0 -1 405.424 211.669)" stroke="white" stroke-opacity="0.05"/>
<rect x="0.5" y="-0.5" width="63.016" height="62.6959" transform="matrix(1 0 0 -1 405.424 461.646)" stroke="white" stroke-opacity="0.05"/>
<rect x="0.5" y="-0.5" width="63.016" height="62.6959" transform="matrix(1 0 0 -1 656.654 711.619)" stroke="white" stroke-opacity="0.05"/>
<rect x="0.5" y="-0.5" width="63.016" height="62.6959" transform="matrix(1 0 0 -1 656.654 211.669)" stroke="white" stroke-opacity="0.05"/>
<rect x="0.5" y="-0.5" width="63.016" height="62.6959" transform="matrix(1 0 0 -1 656.654 461.646)" stroke="white" stroke-opacity="0.05"/>
<rect x="0.5" y="-0.5" width="63.016" height="62.6959" transform="matrix(1 0 0 -1 719.462 899.1)" stroke="white" stroke-opacity="0.05"/>
<rect x="0.5" y="-0.5" width="63.016" height="62.6959" transform="matrix(1 0 0 -1 719.462 399.151)" stroke="white" stroke-opacity="0.05"/>
<rect x="0.5" y="-0.5" width="63.016" height="62.6959" transform="matrix(1 0 0 -1 719.462 649.124)" stroke="white" stroke-opacity="0.05"/>
<rect x="0.5" y="-0.5" width="63.016" height="62.6959" transform="matrix(1 0 0 -1 719.462 149.176)" stroke="white" stroke-opacity="0.05"/>
<rect x="0.5" y="-0.5" width="63.016" height="62.6959" transform="matrix(1 0 0 -1 970.691 899.1)" stroke="white" stroke-opacity="0.05"/>
<rect x="0.5" y="-0.5" width="63.016" height="62.6959" transform="matrix(1 0 0 -1 970.691 399.151)" stroke="white" stroke-opacity="0.05"/>
<rect x="0.5" y="-0.5" width="63.016" height="62.6959" transform="matrix(1 0 0 -1 970.691 649.124)" stroke="white" stroke-opacity="0.05"/>
<rect x="0.5" y="-0.5" width="63.016" height="62.6959" transform="matrix(1 0 0 -1 970.691 149.176)" stroke="white" stroke-opacity="0.05"/>
<rect x="0.5" y="-0.5" width="63.016" height="62.6959" transform="matrix(1 0 0 -1 719.462 774.112)" stroke="white" stroke-opacity="0.05"/>
<rect x="0.5" y="-0.5" width="63.016" height="62.6959" transform="matrix(1 0 0 -1 719.462 274.163)" stroke="white" stroke-opacity="0.05"/>
<rect x="0.5" y="-0.5" width="63.016" height="62.6959" transform="matrix(1 0 0 -1 719.462 524.138)" stroke="white" stroke-opacity="0.05"/>
<rect x="0.5" y="-0.5" width="63.016" height="62.6959" transform="matrix(1 0 0 -1 719.462 24.1895)" stroke="white" stroke-opacity="0.05"/>
<rect x="0.5" y="-0.5" width="63.016" height="62.6959" transform="matrix(1 0 0 -1 970.691 774.112)" stroke="white" stroke-opacity="0.05"/>
<rect x="0.5" y="-0.5" width="63.016" height="62.6959" transform="matrix(1 0 0 -1 970.691 274.163)" stroke="white" stroke-opacity="0.05"/>
<rect x="0.5" y="-0.5" width="63.016" height="62.6959" transform="matrix(1 0 0 -1 970.691 524.138)" stroke="white" stroke-opacity="0.05"/>
<rect x="0.5" y="-0.5" width="63.016" height="62.6959" transform="matrix(1 0 0 -1 970.691 24.1895)" stroke="white" stroke-opacity="0.05"/>
<rect x="0.5" y="-0.5" width="63.016" height="62.6959" transform="matrix(1 0 0 -1 845.075 899.1)" stroke="white" stroke-opacity="0.05"/>
<rect x="0.5" y="-0.5" width="63.016" height="62.6959" transform="matrix(1 0 0 -1 845.075 399.151)" stroke="white" stroke-opacity="0.05"/>
<rect x="0.5" y="-0.5" width="63.016" height="62.6959" transform="matrix(1 0 0 -1 845.075 649.124)" stroke="white" stroke-opacity="0.05"/>
<rect x="0.5" y="-0.5" width="63.016" height="62.6959" transform="matrix(1 0 0 -1 845.075 149.176)" stroke="white" stroke-opacity="0.05"/>
<rect x="0.5" y="-0.5" width="63.016" height="62.6959" transform="matrix(1 0 0 -1 1096.31 899.1)" stroke="white" stroke-opacity="0.05"/>
<rect x="0.5" y="-0.5" width="63.016" height="62.6959" transform="matrix(1 0 0 -1 1096.31 399.151)" stroke="white" stroke-opacity="0.05"/>
<rect x="0.5" y="-0.5" width="63.016" height="62.6959" transform="matrix(1 0 0 -1 1096.31 649.124)" stroke="white" stroke-opacity="0.05"/>
<rect x="0.5" y="-0.5" width="63.016" height="62.6959" transform="matrix(1 0 0 -1 1096.31 149.176)" stroke="white" stroke-opacity="0.05"/>
<rect x="0.5" y="-0.5" width="63.016" height="62.6959" transform="matrix(1 0 0 -1 845.075 774.112)" stroke="white" stroke-opacity="0.05"/>
<rect x="0.5" y="-0.5" width="63.016" height="62.6959" transform="matrix(1 0 0 -1 845.075 274.163)" stroke="white" stroke-opacity="0.05"/>
<rect x="0.5" y="-0.5" width="63.016" height="62.6959" transform="matrix(1 0 0 -1 845.075 524.138)" stroke="white" stroke-opacity="0.05"/>
<rect x="0.5" y="-0.5" width="63.016" height="62.6959" transform="matrix(1 0 0 -1 845.075 24.1895)" stroke="white" stroke-opacity="0.05"/>
<rect x="0.5" y="-0.5" width="63.016" height="62.6959" transform="matrix(1 0 0 -1 1096.31 774.112)" stroke="white" stroke-opacity="0.05"/>
<rect x="0.5" y="-0.5" width="63.016" height="62.6959" transform="matrix(1 0 0 -1 1096.31 274.163)" stroke="white" stroke-opacity="0.05"/>
<rect x="0.5" y="-0.5" width="63.016" height="62.6959" transform="matrix(1 0 0 -1 1096.31 524.138)" stroke="white" stroke-opacity="0.05"/>
<rect x="0.5" y="-0.5" width="63.016" height="62.6959" transform="matrix(1 0 0 -1 1096.31 24.1895)" stroke="white" stroke-opacity="0.05"/>
<rect x="0.5" y="-0.5" width="63.016" height="62.6959" transform="matrix(1 0 0 -1 719.462 836.606)" stroke="white" stroke-opacity="0.05"/>
<rect x="0.5" y="-0.5" width="63.016" height="62.6959" transform="matrix(1 0 0 -1 719.462 336.657)" stroke="white" stroke-opacity="0.05"/>
<rect x="0.5" y="-0.5" width="63.016" height="62.6959" transform="matrix(1 0 0 -1 719.462 586.632)" stroke="white" stroke-opacity="0.05"/>
<rect x="0.5" y="-0.5" width="63.016" height="62.6959" transform="matrix(1 0 0 -1 719.462 86.6831)" stroke="white" stroke-opacity="0.05"/>
<rect x="0.5" y="-0.5" width="63.016" height="62.6959" transform="matrix(1 0 0 -1 970.692 836.606)" stroke="white" stroke-opacity="0.05"/>
<rect x="0.5" y="-0.5" width="63.016" height="62.6959" transform="matrix(1 0 0 -1 970.691 336.657)" stroke="white" stroke-opacity="0.05"/>
<rect x="0.5" y="-0.5" width="63.016" height="62.6959" transform="matrix(1 0 0 -1 970.691 586.632)" stroke="white" stroke-opacity="0.05"/>
<rect x="0.5" y="-0.5" width="63.016" height="62.6959" transform="matrix(1 0 0 -1 970.691 86.6831)" stroke="white" stroke-opacity="0.05"/>
<rect x="0.5" y="-0.5" width="63.016" height="62.6959" transform="matrix(1 0 0 -1 719.462 711.619)" stroke="white" stroke-opacity="0.05"/>
<rect x="0.5" y="-0.5" width="63.016" height="62.6959" transform="matrix(1 0 0 -1 719.462 211.669)" stroke="white" stroke-opacity="0.05"/>
<rect x="0.5" y="-0.5" width="63.016" height="62.6959" transform="matrix(1 0 0 -1 719.462 461.646)" stroke="white" stroke-opacity="0.05"/>
<rect x="0.5" y="-0.5" width="63.016" height="62.6959" transform="matrix(1 0 0 -1 970.691 711.619)" stroke="white" stroke-opacity="0.05"/>
<rect x="0.5" y="-0.5" width="63.016" height="62.6959" transform="matrix(1 0 0 -1 970.691 211.669)" stroke="white" stroke-opacity="0.05"/>
<rect x="0.5" y="-0.5" width="63.016" height="62.6959" transform="matrix(1 0 0 -1 970.691 461.646)" stroke="white" stroke-opacity="0.05"/>
<rect x="0.5" y="-0.5" width="63.016" height="62.6959" transform="matrix(1 0 0 -1 845.075 836.606)" stroke="white" stroke-opacity="0.05"/>
<rect x="0.5" y="-0.5" width="63.016" height="62.6959" transform="matrix(1 0 0 -1 845.075 336.657)" stroke="white" stroke-opacity="0.05"/>
<rect x="0.5" y="-0.5" width="63.016" height="62.6959" transform="matrix(1 0 0 -1 845.075 586.632)" stroke="white" stroke-opacity="0.05"/>
<rect x="0.5" y="-0.5" width="63.016" height="62.6959" transform="matrix(1 0 0 -1 845.075 86.6831)" stroke="white" stroke-opacity="0.05"/>
<rect x="0.5" y="-0.5" width="63.016" height="62.6959" transform="matrix(1 0 0 -1 1096.31 836.606)" stroke="white" stroke-opacity="0.05"/>
<rect x="0.5" y="-0.5" width="63.016" height="62.6959" transform="matrix(1 0 0 -1 1096.31 336.657)" stroke="white" stroke-opacity="0.05"/>
<rect x="0.5" y="-0.5" width="63.016" height="62.6959" transform="matrix(1 0 0 -1 1096.31 586.632)" stroke="white" stroke-opacity="0.05"/>
<rect x="0.5" y="-0.5" width="63.016" height="62.6959" transform="matrix(1 0 0 -1 1096.31 86.6831)" stroke="white" stroke-opacity="0.05"/>
<rect x="0.5" y="-0.5" width="63.016" height="62.6959" transform="matrix(1 0 0 -1 845.075 711.619)" stroke="white" stroke-opacity="0.05"/>
<rect x="0.5" y="-0.5" width="63.016" height="62.6959" transform="matrix(1 0 0 -1 845.075 211.669)" stroke="white" stroke-opacity="0.05"/>
<rect x="0.5" y="-0.5" width="63.016" height="62.6959" transform="matrix(1 0 0 -1 845.075 461.646)" stroke="white" stroke-opacity="0.05"/>
<rect x="0.5" y="-0.5" width="63.016" height="62.6959" transform="matrix(1 0 0 -1 1096.31 711.619)" stroke="white" stroke-opacity="0.05"/>
<rect x="0.5" y="-0.5" width="63.016" height="62.6959" transform="matrix(1 0 0 -1 1096.31 211.669)" stroke="white" stroke-opacity="0.05"/>
<rect x="0.5" y="-0.5" width="63.016" height="62.6959" transform="matrix(1 0 0 -1 1096.31 461.646)" stroke="white" stroke-opacity="0.05"/>
<rect x="0.5" y="-0.5" width="63.016" height="62.6959" transform="matrix(1 0 0 -1 782.267 899.1)" stroke="white" stroke-opacity="0.05"/>
<rect x="0.5" y="-0.5" width="63.016" height="62.6959" transform="matrix(1 0 0 -1 782.267 399.151)" stroke="white" stroke-opacity="0.05"/>
<rect x="0.5" y="-0.5" width="63.016" height="62.6959" transform="matrix(1 0 0 -1 782.267 649.124)" stroke="white" stroke-opacity="0.05"/>
<rect x="0.5" y="-0.5" width="63.016" height="62.6959" transform="matrix(1 0 0 -1 782.267 149.176)" stroke="white" stroke-opacity="0.05"/>
<rect x="0.5" y="-0.5" width="63.016" height="62.6959" transform="matrix(1 0 0 -1 1033.5 899.1)" stroke="white" stroke-opacity="0.05"/>
<rect x="0.5" y="-0.5" width="63.016" height="62.6959" transform="matrix(1 0 0 -1 1033.5 399.151)" stroke="white" stroke-opacity="0.05"/>
<rect x="0.5" y="-0.5" width="63.016" height="62.6959" transform="matrix(1 0 0 -1 1033.5 649.124)" stroke="white" stroke-opacity="0.05"/>
<rect x="0.5" y="-0.5" width="63.016" height="62.6959" transform="matrix(1 0 0 -1 1033.5 149.176)" stroke="white" stroke-opacity="0.05"/>
<rect x="0.5" y="-0.5" width="63.016" height="62.6959" transform="matrix(1 0 0 -1 782.267 774.112)" stroke="white" stroke-opacity="0.05"/>
<rect x="0.5" y="-0.5" width="63.016" height="62.6959" transform="matrix(1 0 0 -1 782.267 274.163)" stroke="white" stroke-opacity="0.05"/>
<rect x="0.5" y="-0.5" width="63.016" height="62.6959" transform="matrix(1 0 0 -1 782.267 524.138)" stroke="white" stroke-opacity="0.05"/>
<rect x="0.5" y="-0.5" width="63.016" height="62.6959" transform="matrix(1 0 0 -1 782.267 24.1895)" stroke="white" stroke-opacity="0.05"/>
<rect x="0.5" y="-0.5" width="63.016" height="62.6959" transform="matrix(1 0 0 -1 1033.5 774.112)" stroke="white" stroke-opacity="0.05"/>
<rect x="0.5" y="-0.5" width="63.016" height="62.6959" transform="matrix(1 0 0 -1 1033.5 274.163)" stroke="white" stroke-opacity="0.05"/>
<rect x="0.5" y="-0.5" width="63.016" height="62.6959" transform="matrix(1 0 0 -1 1033.5 524.138)" stroke="white" stroke-opacity="0.05"/>
<rect x="0.5" y="-0.5" width="63.016" height="62.6959" transform="matrix(1 0 0 -1 1033.5 24.1895)" stroke="white" stroke-opacity="0.05"/>
<rect x="0.5" y="-0.5" width="63.016" height="62.6959" transform="matrix(1 0 0 -1 907.883 899.1)" stroke="white" stroke-opacity="0.05"/>
<rect x="0.5" y="-0.5" width="63.016" height="62.6959" transform="matrix(1 0 0 -1 907.883 399.151)" stroke="white" stroke-opacity="0.05"/>
<rect x="0.5" y="-0.5" width="63.016" height="62.6959" transform="matrix(1 0 0 -1 907.883 649.124)" stroke="white" stroke-opacity="0.05"/>
<rect x="0.5" y="-0.5" width="63.016" height="62.6959" transform="matrix(1 0 0 -1 907.883 149.176)" stroke="white" stroke-opacity="0.05"/>
<rect x="0.5" y="-0.5" width="63.016" height="62.6959" transform="matrix(1 0 0 -1 1159.11 899.1)" stroke="white" stroke-opacity="0.05"/>
<rect x="0.5" y="-0.5" width="63.016" height="62.6959" transform="matrix(1 0 0 -1 1159.11 399.151)" stroke="white" stroke-opacity="0.05"/>
<rect x="0.5" y="-0.5" width="63.016" height="62.6959" transform="matrix(1 0 0 -1 1159.11 649.124)" stroke="white" stroke-opacity="0.05"/>
<rect x="0.5" y="-0.5" width="63.016" height="62.6959" transform="matrix(1 0 0 -1 1159.11 149.176)" stroke="white" stroke-opacity="0.05"/>
<rect x="0.5" y="-0.5" width="63.016" height="62.6959" transform="matrix(1 0 0 -1 907.883 774.112)" stroke="white" stroke-opacity="0.05"/>
<rect x="0.5" y="-0.5" width="63.016" height="62.6959" transform="matrix(1 0 0 -1 907.883 274.163)" stroke="white" stroke-opacity="0.05"/>
<rect x="0.5" y="-0.5" width="63.016" height="62.6959" transform="matrix(1 0 0 -1 907.883 524.138)" stroke="white" stroke-opacity="0.05"/>
<rect x="0.5" y="-0.5" width="63.016" height="62.6959" transform="matrix(1 0 0 -1 907.883 24.1895)" stroke="white" stroke-opacity="0.05"/>
<rect x="0.5" y="-0.5" width="63.016" height="62.6959" transform="matrix(1 0 0 -1 1159.11 774.112)" stroke="white" stroke-opacity="0.05"/>
<rect x="0.5" y="-0.5" width="63.016" height="62.6959" transform="matrix(1 0 0 -1 1159.11 274.163)" stroke="white" stroke-opacity="0.05"/>
<rect x="0.5" y="-0.5" width="63.016" height="62.6959" transform="matrix(1 0 0 -1 1159.11 524.138)" stroke="white" stroke-opacity="0.05"/>
<rect x="0.5" y="-0.5" width="63.016" height="62.6959" transform="matrix(1 0 0 -1 1159.11 24.1895)" stroke="white" stroke-opacity="0.05"/>
<rect x="0.5" y="-0.5" width="63.016" height="62.6959" transform="matrix(1 0 0 -1 782.267 836.606)" stroke="white" stroke-opacity="0.05"/>
<rect x="0.5" y="-0.5" width="63.016" height="62.6959" transform="matrix(1 0 0 -1 782.267 336.657)" stroke="white" stroke-opacity="0.05"/>
<rect x="0.5" y="-0.5" width="63.016" height="62.6959" transform="matrix(1 0 0 -1 782.267 586.632)" stroke="white" stroke-opacity="0.05"/>
<rect x="0.5" y="-0.5" width="63.016" height="62.6959" transform="matrix(1 0 0 -1 782.267 86.6831)" stroke="white" stroke-opacity="0.05"/>
<rect x="0.5" y="-0.5" width="63.016" height="62.6959" transform="matrix(1 0 0 -1 1033.5 836.606)" stroke="white" stroke-opacity="0.05"/>
<rect x="0.5" y="-0.5" width="63.016" height="62.6959" transform="matrix(1 0 0 -1 1033.5 336.657)" stroke="white" stroke-opacity="0.05"/>
<rect x="0.5" y="-0.5" width="63.016" height="62.6959" transform="matrix(1 0 0 -1 1033.5 586.632)" stroke="white" stroke-opacity="0.05"/>
<rect x="0.5" y="-0.5" width="63.016" height="62.6959" transform="matrix(1 0 0 -1 1033.5 86.6831)" stroke="white" stroke-opacity="0.05"/>
<rect x="0.5" y="-0.5" width="63.016" height="62.6959" transform="matrix(1 0 0 -1 782.267 711.619)" stroke="white" stroke-opacity="0.05"/>
<rect x="0.5" y="-0.5" width="63.016" height="62.6959" transform="matrix(1 0 0 -1 782.267 211.669)" stroke="white" stroke-opacity="0.05"/>
<rect x="0.5" y="-0.5" width="63.016" height="62.6959" transform="matrix(1 0 0 -1 782.267 461.646)" stroke="white" stroke-opacity="0.05"/>
<rect x="0.5" y="-0.5" width="63.016" height="62.6959" transform="matrix(1 0 0 -1 1033.5 711.619)" stroke="white" stroke-opacity="0.05"/>
<rect x="0.5" y="-0.5" width="63.016" height="62.6959" transform="matrix(1 0 0 -1 1033.5 211.669)" stroke="white" stroke-opacity="0.05"/>
<rect x="0.5" y="-0.5" width="63.016" height="62.6959" transform="matrix(1 0 0 -1 1033.5 461.646)" stroke="white" stroke-opacity="0.05"/>
<rect x="0.5" y="-0.5" width="63.016" height="62.6959" transform="matrix(1 0 0 -1 907.883 836.606)" stroke="white" stroke-opacity="0.05"/>
<rect x="0.5" y="-0.5" width="63.016" height="62.6959" transform="matrix(1 0 0 -1 907.883 336.657)" stroke="white" stroke-opacity="0.05"/>
<rect x="0.5" y="-0.5" width="63.016" height="62.6959" transform="matrix(1 0 0 -1 907.883 586.632)" stroke="white" stroke-opacity="0.05"/>
<rect x="0.5" y="-0.5" width="63.016" height="62.6959" transform="matrix(1 0 0 -1 907.883 86.6831)" stroke="white" stroke-opacity="0.05"/>
<rect x="0.5" y="-0.5" width="63.016" height="62.6959" transform="matrix(1 0 0 -1 1159.11 836.606)" stroke="white" stroke-opacity="0.05"/>
<rect x="0.5" y="-0.5" width="63.016" height="62.6959" transform="matrix(1 0 0 -1 1159.11 336.657)" stroke="white" stroke-opacity="0.05"/>
<rect x="0.5" y="-0.5" width="63.016" height="62.6959" transform="matrix(1 0 0 -1 1159.11 586.632)" stroke="white" stroke-opacity="0.05"/>
<rect x="0.5" y="-0.5" width="63.016" height="62.6959" transform="matrix(1 0 0 -1 1159.11 86.6831)" stroke="white" stroke-opacity="0.05"/>
<rect x="0.5" y="-0.5" width="63.016" height="62.6959" transform="matrix(1 0 0 -1 907.883 711.619)" stroke="white" stroke-opacity="0.05"/>
<rect x="0.5" y="-0.5" width="63.016" height="62.6959" transform="matrix(1 0 0 -1 907.883 211.669)" stroke="white" stroke-opacity="0.05"/>
<rect x="0.5" y="-0.5" width="63.016" height="62.6959" transform="matrix(1 0 0 -1 907.883 461.646)" stroke="white" stroke-opacity="0.05"/>
<rect x="0.5" y="-0.5" width="63.016" height="62.6959" transform="matrix(1 0 0 -1 1159.11 711.619)" stroke="white" stroke-opacity="0.05"/>
<rect x="0.5" y="-0.5" width="63.016" height="62.6959" transform="matrix(1 0 0 -1 1159.11 211.669)" stroke="white" stroke-opacity="0.05"/>
<rect x="0.5" y="-0.5" width="63.016" height="62.6959" transform="matrix(1 0 0 -1 1159.11 461.646)" stroke="white" stroke-opacity="0.05"/>
</g>
</g>
<defs>
<filter id="filter0_b_3284_7410" x="-200" y="-200" width="1840" height="1300" filterUnits="userSpaceOnUse" color-interpolation-filters="sRGB">
<feFlood flood-opacity="0" result="BackgroundImageFix"/>
<feGaussianBlur in="BackgroundImageFix" stdDeviation="100"/>
<feComposite in2="SourceAlpha" operator="in" result="effect1_backgroundBlur_3284_7410"/>
<feBlend mode="normal" in="SourceGraphic" in2="effect1_backgroundBlur_3284_7410" result="shape"/>
</filter>
<linearGradient id="paint0_linear_3284_7410" x1="660.494" y1="-57.0739" x2="1231.49" y2="878.355" gradientUnits="userSpaceOnUse">
<stop stop-color="#DDFF4F"/>
<stop offset="1" stop-color="#97FEFF"/>
</linearGradient>
<clipPath id="clip0_3284_7410">
<rect width="1440" height="900" fill="white" transform="matrix(1 0 0 -1 0 900)"/>
</clipPath>
</defs>
</svg>
