<svg width="19" height="23" viewBox="0 0 19 23" fill="none" xmlns="http://www.w3.org/2000/svg">
<path fill-rule="evenodd" clip-rule="evenodd" d="M9.5 0C10.4928 1.219 11.5848 2.35367 12.7685 3.381C11.9819 5.94933 11.5543 8.671 11.5543 11.5C11.5543 14.329 11.9819 17.0507 12.7685 19.619C11.5848 20.654 10.4928 21.781 9.5 23C8.50723 21.781 7.41519 20.6463 6.23151 19.619C7.01809 17.0507 7.44574 14.329 7.44574 11.5C7.44574 8.671 7.01809 5.94933 6.23151 3.381C7.41519 2.35367 8.50723 1.219 9.5 0ZM3.97106 17.8403C2.71865 16.9587 1.38987 16.1843 0 15.5173C0.389469 14.2447 0.595659 12.8953 0.595659 11.5C0.595659 10.1047 0.389469 8.75533 0 7.48267C1.38987 6.81567 2.71865 6.04133 3.97106 5.15967C4.45217 7.199 4.70418 9.32267 4.70418 11.5C4.70418 13.685 4.45217 15.8087 3.97106 17.8403ZM14.2958 11.5C14.2958 13.685 14.5478 15.8087 15.0289 17.8403C16.2814 16.9587 17.6101 16.1843 19 15.5173C18.6105 14.2447 18.4043 12.8953 18.4043 11.5C18.4043 10.1047 18.6105 8.75533 19 7.48267C17.6101 6.81567 16.2814 6.04133 15.0289 5.15967C14.5478 7.19133 14.2958 9.315 14.2958 11.5Z" fill="#6851FF"/>
</svg>
