<svg width="24" height="25" viewBox="0 0 24 25" fill="none" xmlns="http://www.w3.org/2000/svg">
<g clip-path="url(#clip0_3275_2365)">
<path fill-rule="evenodd" clip-rule="evenodd" d="M12 1.5C12.9928 2.719 14.0848 3.85367 15.2685 4.881C14.4819 7.44933 14.0543 10.171 14.0543 13C14.0543 15.829 14.4819 18.5507 15.2685 21.119C14.0848 22.154 12.9928 23.281 12 24.5C11.0072 23.281 9.91519 22.1463 8.73151 21.119C9.51809 18.5507 9.94574 15.829 9.94574 13C9.94574 10.171 9.51809 7.44933 8.73151 4.881C9.91519 3.85367 11.0072 2.719 12 1.5ZM6.47106 19.3403C5.21865 18.4587 3.88987 17.6843 2.5 17.0173C2.88947 15.7447 3.09566 14.3953 3.09566 13C3.09566 11.6047 2.88947 10.2553 2.5 8.98267C3.88987 8.31567 5.21865 7.54133 6.47106 6.65967C6.95217 8.699 7.20418 10.8227 7.20418 13C7.20418 15.185 6.95217 17.3087 6.47106 19.3403ZM16.7958 13C16.7958 15.185 17.0478 17.3087 17.5289 19.3403C18.7814 18.4587 20.1101 17.6843 21.5 17.0173C21.1105 15.7447 20.9043 14.3953 20.9043 13C20.9043 11.6047 21.1105 10.2553 21.5 8.98267C20.1101 8.31567 18.7814 7.54133 17.5289 6.65967C17.0478 8.69133 16.7958 10.815 16.7958 13Z" fill="#0A0A0A"/>
</g>
<defs>
<clipPath id="clip0_3275_2365">
<rect y="0.5" width="24" height="24" rx="10" fill="white"/>
</clipPath>
</defs>
</svg>
