<svg width="22" height="20" viewBox="0 0 22 20" fill="none" xmlns="http://www.w3.org/2000/svg">
<path d="M19.6789 1L12.0084 6.48594L13.4269 3.24931L19.6789 1Z" fill="#2D3353" stroke="#E2761B" stroke-linecap="round" stroke-linejoin="round"/>
<path d="M1.97131 1L9.58008 6.53791L8.23101 3.24931L1.97131 1Z" fill="#E4761B" stroke="#E4761B" stroke-linecap="round" stroke-linejoin="round"/>
<path d="M16.9191 13.7164L14.8762 16.7303L19.2472 17.8883L20.5038 13.7832L16.9191 13.7164Z" fill="#E4761B" stroke="#E4761B" stroke-linecap="round" stroke-linejoin="round"/>
<path d="M1.16187 13.7832L2.41072 17.8883L6.78172 16.7303L4.73884 13.7164L1.16187 13.7832Z" fill="#E4761B" stroke="#E4761B" stroke-linecap="round" stroke-linejoin="round"/>
<path d="M6.53504 8.62392L5.31702 10.3981L9.65718 10.5837L9.503 6.09251L6.53504 8.62392Z" fill="#E4761B" stroke="#E4761B" stroke-linecap="round" stroke-linejoin="round"/>
<path d="M15.1151 8.62384L12.1086 6.04047L12.0084 10.5836L16.3409 10.398L15.1151 8.62384Z" fill="#E4761B" stroke="#E4761B" stroke-linecap="round" stroke-linejoin="round"/>
<path d="M6.78174 16.7303L9.38738 15.5055L7.13635 13.8129L6.78174 16.7303Z" fill="#E4761B" stroke="#E4761B" stroke-linecap="round" stroke-linejoin="round"/>
<path d="M12.2628 15.5055L14.8762 16.7303L14.5138 13.8129L12.2628 15.5055Z" fill="#E4761B" stroke="#E4761B" stroke-linecap="round" stroke-linejoin="round"/>
<path d="M14.8762 16.7303L12.2628 15.5054L12.471 17.146L12.4478 17.8364L14.8762 16.7303Z" fill="#D7C1B3" stroke="#D7C1B3" stroke-linecap="round" stroke-linejoin="round"/>
<path d="M6.78174 16.7303L9.21007 17.8364L9.19465 17.146L9.38738 15.5054L6.78174 16.7303Z" fill="#D7C1B3" stroke="#D7C1B3" stroke-linecap="round" stroke-linejoin="round"/>
<path d="M9.24864 12.7291L7.07471 12.113L8.6088 11.4374L9.24864 12.7291Z" fill="#233447" stroke="#233447" stroke-linecap="round" stroke-linejoin="round"/>
<path d="M12.4016 12.7291L13.0415 11.4374L14.5833 12.113L12.4016 12.7291Z" fill="#233447" stroke="#233447" stroke-linecap="round" stroke-linejoin="round"/>
<path d="M6.78177 16.7303L7.1518 13.7164L4.73889 13.7832L6.78177 16.7303Z" fill="#CD6116" stroke="#CD6116" stroke-linecap="round" stroke-linejoin="round"/>
<path d="M14.5061 13.7164L14.8761 16.7303L16.919 13.7832L14.5061 13.7164Z" fill="#CD6116" stroke="#CD6116" stroke-linecap="round" stroke-linejoin="round"/>
<path d="M16.3409 10.3981L12.0084 10.5837L12.4093 12.7291L13.0491 11.4374L14.5909 12.1129L16.3409 10.3981Z" fill="#CD6116" stroke="#CD6116" stroke-linecap="round" stroke-linejoin="round"/>
<path d="M7.07467 12.1129L8.61646 11.4374L9.2486 12.7291L9.65718 10.5837L5.31702 10.3981L7.07467 12.1129Z" fill="#CD6116" stroke="#CD6116" stroke-linecap="round" stroke-linejoin="round"/>
<path d="M5.31702 10.3981L7.13634 13.8129L7.07466 12.1129L5.31702 10.3981Z" fill="#E4751F" stroke="#E4751F" stroke-linecap="round" stroke-linejoin="round"/>
<path d="M14.5909 12.1129L14.5138 13.8129L16.3408 10.3981L14.5909 12.1129Z" fill="#E4751F" stroke="#E4751F" stroke-linecap="round" stroke-linejoin="round"/>
<path d="M9.65723 10.5837L9.24866 12.7291L9.75745 15.2605L9.87309 11.9273L9.65723 10.5837Z" fill="#E4751F" stroke="#E4751F" stroke-linecap="round" stroke-linejoin="round"/>
<path d="M12.0083 10.5837L11.8002 11.9199L11.8927 15.2605L12.4092 12.7291L12.0083 10.5837Z" fill="#E4751F" stroke="#E4751F" stroke-linecap="round" stroke-linejoin="round"/>
<path d="M12.4093 12.729L11.8928 15.2604L12.2629 15.5054L14.5139 13.8129L14.591 12.1129L12.4093 12.729Z" fill="#F6851B" stroke="#F6851B" stroke-linecap="round" stroke-linejoin="round"/>
<path d="M7.07471 12.1129L7.13638 13.8129L9.3874 15.5054L9.75743 15.2604L9.24864 12.729L7.07471 12.1129Z" fill="#F6851B" stroke="#F6851B" stroke-linecap="round" stroke-linejoin="round"/>
<path d="M12.4478 17.8364L12.471 17.146L12.2782 16.9827H9.37196L9.19465 17.146L9.21007 17.8364L6.78174 16.7303L7.62973 17.3984L9.34883 18.5491H12.3014L14.0282 17.3984L14.8762 16.7303L12.4478 17.8364Z" fill="#C0AD9E" stroke="#C0AD9E" stroke-linecap="round" stroke-linejoin="round"/>
<path d="M12.2628 15.5055L11.8927 15.2605H9.75734L9.3873 15.5055L9.19458 17.1461L9.37189 16.9828H12.2782L12.4709 17.1461L12.2628 15.5055Z" fill="#161616" stroke="#161616" stroke-linecap="round" stroke-linejoin="round"/>
<path d="M20.0026 6.84227L20.6579 3.81349L19.6789 1L12.2628 6.30036L15.1151 8.6239L19.1469 9.75969L20.0412 8.75753L19.6557 8.49028L20.2725 7.94837L19.7945 7.59204L20.4112 7.13921L20.0026 6.84227Z" fill="#763D16" stroke="#763D16" stroke-linecap="round" stroke-linejoin="round"/>
<path d="M1 3.81349L1.65526 6.84227L1.23898 7.13921L1.8557 7.59204L1.38545 7.94837L2.00217 8.49028L1.61672 8.75753L2.50325 9.75969L6.53505 8.6239L9.38738 6.30036L1.97133 1L1 3.81349Z" fill="#763D16" stroke="#763D16" stroke-linecap="round" stroke-linejoin="round"/>
<path d="M19.147 9.75963L15.1152 8.62384L16.3409 10.3981L14.5139 13.8128L16.9191 13.7832H20.5038L19.147 9.75963Z" fill="#F6851B" stroke="#F6851B" stroke-linecap="round" stroke-linejoin="round"/>
<path d="M6.53503 8.62384L2.50323 9.75963L1.16187 13.7832H4.73884L7.13633 13.8128L5.31701 10.3981L6.53503 8.62384Z" fill="#F6851B" stroke="#F6851B" stroke-linecap="round" stroke-linejoin="round"/>
<path d="M12.0084 10.5837L12.2628 6.30039L13.4345 3.24934H8.23096L9.38731 6.30039L9.65712 10.5837L9.74963 11.9348L9.75734 15.2605H11.8927L11.9081 11.9348L12.0084 10.5837Z" fill="#F6851B" stroke="#F6851B" stroke-linecap="round" stroke-linejoin="round"/>
</svg>
