<svg width="86" height="24" viewBox="0 0 86 24" fill="none" xmlns="http://www.w3.org/2000/svg">
<path d="M72.0684 8.44067H73.7889L75.8436 15.5401L78.249 8.44067H79.9195L82.3249 15.5401L84.3796 8.44067H85.9999L83.4943 16.7929H81.1222L79.0341 10.4452L76.9461 16.7929H74.574L72.0684 8.44067Z" fill="#013709"/>
<path d="M66.9865 17.0604C66.0511 17.0604 65.2604 16.8655 64.6145 16.4757C63.9686 16.086 63.4841 15.557 63.1612 14.8888C62.8382 14.2095 62.6768 13.4467 62.6768 12.6003C62.6768 11.7651 62.8382 11.0134 63.1612 10.3452C63.4841 9.67699 63.9686 9.14802 64.6145 8.75824C65.2604 8.36847 66.0511 8.17358 66.9865 8.17358C67.922 8.17358 68.7127 8.36847 69.3586 8.75824C70.0045 9.14802 70.4889 9.68256 70.8119 10.3619C71.1348 11.0301 71.2963 11.7762 71.2963 12.6003C71.2963 13.4355 71.1348 14.1928 70.8119 14.8721C70.4889 15.5403 70.0045 16.0748 69.3586 16.4757C68.7127 16.8655 67.922 17.0604 66.9865 17.0604ZM64.3639 12.617C64.3639 13.7195 64.5699 14.5157 64.982 15.0057C65.4052 15.4846 66.0733 15.724 66.9865 15.724C67.8997 15.724 68.5623 15.4846 68.9744 15.0057C69.3976 14.5157 69.6091 13.7195 69.6091 12.617C69.6091 11.5145 69.3976 10.7238 68.9744 10.2449C68.5623 9.75495 67.8997 9.50995 66.9865 9.50995C66.0733 9.50995 65.4052 9.75495 64.982 10.2449C64.5699 10.7238 64.3639 11.5145 64.3639 12.617Z" fill="#013709"/>
<path d="M59.138 5.68457H60.8586V16.7931H57.8852L53.6088 8.52434C53.2302 7.75593 52.9629 7.17127 52.807 6.77037V16.7931H51.0864V5.68457H54.0598L58.3529 13.9867C58.5311 14.3431 58.7928 14.9166 59.138 15.7073V5.68457Z" fill="#013709"/>
<path d="M41.6442 18.7975H44.1165L44.9016 16.7929H44.3002L41.1431 8.44067H42.8636L45.1187 14.4042L45.4695 15.4065L45.7869 14.4042L48.0755 8.44067H49.6958L46.2045 17.5279C45.9373 18.2184 45.6978 18.7362 45.4862 19.0815C45.2747 19.4267 44.9851 19.6884 44.6176 19.8666C44.2501 20.0448 43.7378 20.1339 43.0808 20.1339H41.6442V18.7975Z" fill="#013709"/>
<path d="M35.8159 17.0104C34.9584 17.0104 34.2791 16.7932 33.778 16.3589C33.288 15.9246 33.043 15.3232 33.043 14.5548C33.043 13.8644 33.2379 13.3131 33.6276 12.9011C34.0285 12.4779 34.68 12.1883 35.5821 12.0324L37.6701 11.6816C38.0822 11.6148 38.3773 11.509 38.5555 11.3643C38.7448 11.2195 38.8394 11.0023 38.8394 10.7128C38.8394 10.3007 38.7002 9.98891 38.4218 9.77732C38.1546 9.5546 37.6813 9.44323 37.0019 9.44323C36.3226 9.44323 35.8104 9.57687 35.4651 9.84414C35.131 10.1114 34.9417 10.5123 34.8972 11.0469H33.2267C33.2379 10.1448 33.5664 9.43766 34.2123 8.92539C34.8582 8.41312 35.7658 8.15698 36.9351 8.15698C38.0599 8.15698 38.9118 8.39085 39.4909 8.85857C40.0811 9.3263 40.3763 9.9555 40.3763 10.7462V14.8889C40.3763 15.5014 40.4041 16.1362 40.4598 16.7932H38.9397C38.8729 16.1362 38.8394 15.507 38.8394 14.9056C38.6501 15.507 38.3049 16.0081 37.8038 16.409C37.3026 16.8099 36.64 17.0104 35.8159 17.0104ZM34.7134 14.488C34.7134 14.8778 34.8415 15.184 35.0976 15.4068C35.3649 15.6183 35.7213 15.7241 36.1667 15.7241C37.0131 15.7241 37.6701 15.4457 38.1379 14.8889C38.6056 14.321 38.8394 13.6027 38.8394 12.734V12.2329C38.639 12.3777 38.4218 12.4946 38.188 12.5837C37.9541 12.6616 37.6757 12.7396 37.3527 12.8175L36.2001 13.0848C35.6767 13.2073 35.2981 13.3799 35.0642 13.6027C34.8304 13.8143 34.7134 14.1094 34.7134 14.488Z" fill="#013709"/>
<path d="M28.2452 5.68457C29.4034 5.68457 30.2665 6.00196 30.8344 6.63673C31.4135 7.2715 31.7031 8.07332 31.7031 9.04218C31.7031 10.0222 31.4191 10.8296 30.8511 11.4643C30.2832 12.0991 29.4145 12.4165 28.2452 12.4165H24.7373V16.7931H23V5.68457H28.2452ZM27.8276 11.03C29.2085 11.03 29.899 10.3674 29.899 9.04218C29.899 7.72809 29.2085 7.07105 27.8276 7.07105H24.7373V11.03H27.8276Z" fill="#013709"/>
<path d="M0 18.1615L8.82025 13.2097L17.6405 18.1743L8.82025 23.0964L0 18.1615Z" fill="#0A0A0A"/>
<path d="M0 5.85498L8.82025 10.7779V20.5835L0 15.7537V5.85498Z" fill="#013709"/>
<path d="M17.6404 5.86816L8.82019 10.7902V20.5967L17.6404 15.7669V5.86816Z" fill="#48764F"/>
<path d="M0 5.85532L8.82025 0.903564L17.6405 5.86815L8.82025 10.7902L0 5.85532Z" fill="#75D484"/>
</svg>
