<svg width="1269" height="120" viewBox="0 0 1269 120" fill="none" xmlns="http://www.w3.org/2000/svg">
<g clip-path="url(#clip0_2901_871)">
<path d="M159.931 88.5819C166.825 88.5819 171.595 87.5584 174.236 85.5072C176.878 83.4559 178.196 80.4549 178.196 76.4912C178.196 73.2387 177.188 70.6758 175.168 68.8023C173.147 66.9289 170.051 65.7103 165.871 65.1422L148.925 62.809C136.307 61.1134 129.999 54.7862 129.999 43.8274C129.999 37.6086 132.42 32.5694 137.261 28.7141C142.103 24.8632 149.217 22.9333 158.608 22.9333C168 22.9333 175.721 25.0019 180.671 29.1391C185.621 33.2763 188.357 38.7362 188.87 45.5231H177.868C177.278 41.0693 175.411 37.6043 172.256 35.1281C169.102 32.6562 164.517 31.4159 158.5 31.4159C152.484 31.4159 148.502 32.4957 145.68 34.651C142.855 36.8064 141.442 39.7596 141.442 43.5065C141.442 46.1953 142.247 48.4026 143.863 50.1329C145.473 51.8676 147.935 52.9821 151.238 53.4722L169.174 56.0178C175.847 56.9372 180.927 58.9364 184.415 62.0111C187.898 65.0858 189.644 69.4528 189.644 75.1078C189.644 89.7441 179.74 97.0601 159.931 97.0601C148.781 97.0601 140.636 94.6749 135.502 89.9002C130.368 85.1255 127.798 79.0672 127.798 71.7122H138.8C139.165 82.9529 146.211 88.5732 159.927 88.5732L159.931 88.5819Z" fill="black"/>
<path d="M218.917 33.65H193.498V24.8466H255.564V33.65H230.252V95.3738H218.917V33.65Z" fill="black"/>
<path d="M309.381 95.3683L302.888 78.6114H267.456L260.963 95.3683H249.52L276.699 24.8411H293.753L320.932 95.3683H309.377H309.381ZM299.477 69.808L285.172 32.582L270.867 69.808H299.477Z" fill="black"/>
<path d="M329.726 24.8466H367.029C374.292 24.8466 379.646 26.4381 383.093 29.6212C386.54 32.8043 388.264 36.9762 388.264 42.1369C388.264 46.9462 386.869 50.7798 384.083 53.642C381.293 56.5042 377.883 58.2563 373.851 58.8938C378.4 59.5312 382.103 61.3179 384.965 64.2495C387.827 67.1855 389.258 71.1969 389.258 76.2881C389.258 82.1557 387.296 86.8046 383.372 90.2349C379.448 93.6652 373.743 95.3782 366.26 95.3782H329.726V24.8466ZM362.957 54.8607C367.578 54.8607 370.971 53.976 373.135 52.2109C375.3 50.4459 376.38 47.7225 376.38 44.045C376.38 40.3675 375.498 37.8045 373.738 36.1436C371.979 34.4826 368.86 33.65 364.383 33.65H341.056V54.8607H362.957ZM364.937 86.5704C369.189 86.5704 372.325 85.4949 374.346 83.3352C376.362 81.1799 377.374 78.4044 377.374 75.0088C377.374 66.947 372.568 62.9182 362.957 62.9182H341.056V86.566H364.937V86.5704Z" fill="black"/>
<path d="M400.264 86.5704H415.231V33.65H400.264V24.8466H441.532V33.65H426.566V86.5704H441.532V95.3738H400.264V86.5704Z" fill="black"/>
<path d="M455.292 24.8466H466.627V86.5704H503.71V95.3738H455.292V24.8466Z" fill="black"/>
<path d="M511.414 86.5704H526.38V33.65H511.414V24.8466H552.682V33.65H537.715V86.5704H552.682V95.3738H511.414V86.5704Z" fill="black"/>
<path d="M585.796 33.65H560.377V24.8466H622.443V33.65H597.131V95.3738H585.796V33.65Z" fill="black"/>
<path d="M638.767 24.8466L653.621 52.1025L659.345 62.4975C661.325 59.3144 663.305 55.8538 665.284 52.1025L680.251 24.8466H692.904L665.064 72.0425V95.3738H653.729V72.0425L625.889 24.8466H638.763H638.767Z" fill="black"/>
</g>
<rect x="827" y="8" width="7.74194" height="92.9032" fill="#2D3353"/>
<path d="M0 93.3161L47.6924 66.5413L95.3848 93.3855L47.6924 120L0 93.3161Z" fill="#30C5FF"/>
<path d="M0 26.7736L47.6924 53.3923V106.413L0 80.2973V26.7736Z" fill="#232631"/>
<path d="M95.3849 26.8442L47.6925 53.4586V106.484L95.3849 80.368V26.8442Z" fill="#2D3353"/>
<path d="M0 26.7749L47.6924 0L95.3848 26.8443L47.6924 53.4587L0 26.7749Z" fill="#404761"/>
<path d="M1216.28 103.666H1232.25L1237.32 90.7177H1233.44L1213.04 36.7657H1224.16L1238.72 75.2874L1240.99 81.7617L1243.04 75.2874L1257.82 36.7657H1268.29L1245.74 95.4655C1244.01 99.9255 1242.47 103.271 1241.1 105.501C1239.73 107.731 1237.86 109.421 1235.49 110.572C1233.11 111.723 1229.8 112.298 1225.56 112.298H1216.28V103.666Z" fill="#0089FF"/>
<path d="M1181.64 45.0747H1172.47V39.4637L1181.64 36.3345V28.4575C1181.64 23.9975 1182.94 20.6884 1185.53 18.5303C1188.19 16.3003 1192.69 15.1853 1199.02 15.1853H1210.78V23.2781H1191.57V36.7661H1207.54V45.0747H1192.43V90.7181H1181.64V45.0747Z" fill="#0089FF"/>
<path d="M1152 36.7659H1162.79V90.7179H1152V36.7659ZM1150.6 18.9618H1164.19V28.6731H1150.6V18.9618Z" fill="#0089FF"/>
<path d="M1129.49 90.7177C1125.17 90.7177 1121.82 90.1782 1119.45 89.0992C1117.15 87.9482 1115.53 86.2577 1114.6 84.0277C1113.66 81.7257 1113.19 78.6685 1113.19 74.8559V45.0744H1102.94V39.4634L1114.16 35.5788L1118.59 24.5726H1123.98V36.7658H1141.25V45.0744H1123.98V82.0854H1140.17V90.7177H1129.49Z" fill="#0089FF"/>
<path d="M1045.02 36.7657H1055.81V48.8509C1059.55 39.6431 1066.06 35.0392 1075.34 35.0392C1082.31 35.0392 1087.31 36.8736 1090.34 40.5423C1093.43 44.211 1094.98 49.7141 1094.98 57.0516V90.7176H1084.19V58.0227C1084.19 52.7714 1083.14 49.1386 1081.06 47.1244C1078.97 45.0383 1076.02 43.9952 1072.21 43.9952C1066.74 43.9952 1062.64 45.9015 1059.91 49.7141C1057.17 53.5267 1055.81 59.6053 1055.81 67.9499V90.7176H1045.02V36.7657Z" fill="#0089FF"/>
<path d="M1019.26 36.7659H1030.05V90.7179H1019.26V36.7659ZM1017.85 18.9618H1031.45V28.6731H1017.85V18.9618Z" fill="#0089FF"/>
<path d="M1004.7 90.7179H993.588V27.5941L971.576 90.7179H956.901L934.888 27.5941V90.7179H923.774V18.9618H943.089L964.346 79.9275L985.603 18.9618H1004.7V90.7179Z" fill="#0089FF"/>
<defs>
<clipPath id="clip0_2901_871">
<rect width="692.903" height="120" fill="white"/>
</clipPath>
</defs>
</svg>
